HIERARCHY
ROOT Hips
{
	OFFSET 0.00000 0.00000 0.00000
	CHANNELS 6 Xposition Yposition Zposition Zrotation Yrotation Xrotation 
	JOINT LHipJoint
	{
		OFFSET 0 0 0
		CHANNELS 3 Zrotation Yrotation Xrotation
		JOINT LeftUpLeg
		{
			OFFSET 2.36090 -1.39315 1.24752
			CHANNELS 3 Zrotation Yrotation Xrotation
			JOINT LeftLeg
			{
				OFFSET 2.06810 -5.68207 0.00000
				CHANNELS 3 Zrotation Yrotation Xrotation
				JOINT LeftFoot
				{
					OFFSET 2.46631 -6.77613 0.00000
					CHANNELS 3 Zrotation Yrotation Xrotation
					JOINT LeftToeBase
					{
						OFFSET 0.26031 -0.71520 1.99545
						CHANNELS 3 Zrotation Yrotation Xrotation
						End Site
						{
							OFFSET 0.00000 -0.00000 1.05957
						}
					}
				}
			}
		}
	}
	JOINT RHipJoint
	{
		OFFSET 0 0 0
		CHANNELS 3 Zrotation Yrotation Xrotation
		JOINT RightUpLeg
		{
			OFFSET -2.25243 -1.39315 1.24752
			CHANNELS 3 Zrotation Yrotation Xrotation
			JOINT RightLeg
			{
				OFFSET -2.17343 -5.97145 0.00000
				CHANNELS 3 Zrotation Yrotation Xrotation
				JOINT RightFoot
				{
					OFFSET -2.52372 -6.93386 0.00000
					CHANNELS 3 Zrotation Yrotation Xrotation
					JOINT RightToeBase
					{
						OFFSET -0.22538 -0.61923 2.11447
						CHANNELS 3 Zrotation Yrotation Xrotation
						End Site
						{
							OFFSET -0.00000 -0.00000 1.10506
						}
					}
				}
			}
		}
	}
	JOINT LowerBack
	{
		OFFSET 0 0 0
		CHANNELS 3 Zrotation Yrotation Xrotation
		JOINT Spine
		{
			OFFSET 0.01594 2.13103 0.08007
			CHANNELS 3 Zrotation Yrotation Xrotation
			JOINT Spine1
			{
				OFFSET 0.01393 2.09723 0.18338
				CHANNELS 3 Zrotation Yrotation Xrotation
				JOINT Neck
				{
					OFFSET 0 0 0
					CHANNELS 3 Zrotation Yrotation Xrotation
					JOINT Neck1
					{
						OFFSET 0.05351 1.38915 0.32494
						CHANNELS 3 Zrotation Yrotation Xrotation
						JOINT Head
						{
							OFFSET 0.00711 1.45992 -0.21666
							CHANNELS 3 Zrotation Yrotation Xrotation
							End Site
							{
								OFFSET -0.00433 1.47702 -0.11056
							}
						}
					}
				}
				JOINT LeftShoulder
				{
					OFFSET 0 0 0
					CHANNELS 3 Zrotation Yrotation Xrotation
					JOINT LeftArm
					{
						OFFSET 2.87198 0.92249 0.11132
						CHANNELS 3 Zrotation Yrotation Xrotation
						JOINT LeftForeArm
						{
							OFFSET 5.52731 -0.00000 0.00000
							CHANNELS 3 Zrotation Yrotation Xrotation
							JOINT LeftHand
							{
								OFFSET 3.11059 -0.00000 0.00000
								CHANNELS 3 Zrotation Yrotation Xrotation
								JOINT LeftFingerBase
								{
									OFFSET 0 0 0
									CHANNELS 3 Zrotation Yrotation Xrotation
									JOINT LeftHandIndex1
									{
										OFFSET 0.41963 -0.00000 0.00000
										CHANNELS 3 Zrotation Yrotation Xrotation
										End Site
										{
											OFFSET 0.33831 -0.00000 0.00000
										}
									}
								}
								JOINT LThumb
								{
									OFFSET 0 0 0
									CHANNELS 3 Zrotation Yrotation Xrotation
									End Site
									{
										OFFSET 0.34348 -0.00000 0.34348
									}
								}
							}
						}
					}
				}
				JOINT RightShoulder
				{
					OFFSET 0 0 0
					CHANNELS 3 Zrotation Yrotation Xrotation
					JOINT RightArm
					{
						OFFSET -2.94710 0.68072 0.32187
						CHANNELS 3 Zrotation Yrotation Xrotation
						JOINT RightForeArm
						{
							OFFSET -5.25396 -0.00000 -0.00000
							CHANNELS 3 Zrotation Yrotation Xrotation
							JOINT RightHand
							{
								OFFSET -3.10567 -0.00000 0.00000
								CHANNELS 3 Zrotation Yrotation Xrotation
								JOINT RightFingerBase
								{
									OFFSET 0 0 0
									CHANNELS 3 Zrotation Yrotation Xrotation
									JOINT RightHandIndex1
									{
										OFFSET -0.49868 -0.00000 0.00000
										CHANNELS 3 Zrotation Yrotation Xrotation
										End Site
										{
											OFFSET -0.40204 -0.00000 0.00000
										}
									}
								}
								JOINT RThumb
								{
									OFFSET 0 0 0
									CHANNELS 3 Zrotation Yrotation Xrotation
									End Site
									{
										OFFSET -0.40818 -0.00000 0.40818
									}
								}
							}
						}
					}
				}
			}
		}
	}
}
MOTION
Frames: 10
Frame Time: .0083333
2.7963 15.7428 31.8524 0 0 0 0 0 0 -21 0 0 0 0 0 0 0 0 0 0 0 0 0 0 21 0 0 0 0 0 0 0 0 0 0 0 0 0 0 0 0 0 0 0 0 0 0 -16 0 0 21 0 0 11 0 0 0 -8 0 0 0 0 0 0 0 0 0 0 0 0 0 0 0 0 0 0 0 0 8 0 0 0 0 0 0 0 0 0 0 0 0 0 0 0 0 0
2.7963 15.7428 31.8524 -161.0060 -86.0594 178.6930 0.0000 0.0000 0.0000 0.0000 0.0000 0.0000 0.0000 0.0000 0.0000 0.0000 0.0000 0.0000 0.0000 0.0000 0.0000 0.0000 0.0000 0.0000 21.8601 27.5357 -18.6088 -1.8312 -8.5051 24.2592 -0.3031 -8.6819 -16.9533 -0.1006 -2.0458 5.6321 1.1777 1.3013 -25.5936 -1.2324 1.1477 -4.1390 -1.6960 0.4467 9.6880 1.3921 0.4300 -22.9314 10.9972 -3.5541 24.1433 3.2826 -0.1369 12.0261 0.0000 0.0000 0.0000 -76.0678 3.9994 58.8470 15.6930 -25.1026 -3.5147 -0.0000 0.0000 -39.4207 30.9389 7.3516 4.3859 -7.1250 0.0000 -0.0000 3.5707 38.5113 -0.5715 0.0000 0.0000 0.0000 83.7076 -4.8845 46.3378 -14.4443 23.3663 -3.0021 0.0000 -0.0000 -8.3808 -18.2862 -16.7084 5.4271 7.1250 -0.0000 -0.0000 9.1434 -47.3134 -0.5261
2.7976 15.7426 31.8531 -160.9720 -86.1114 178.6690 0.0000 0.0000 0.0000 0.0000 0.0000 0.0000 0.0000 0.0000 0.0000 0.0000 0.0000 0.0000 0.0000 0.0000 0.0000 0.0000 0.0000 0.0000 21.8317 27.5093 -18.6782 -1.8408 -8.5263 24.3244 -0.3075 -8.6613 -16.9870 -0.1046 -2.0852 5.7413 1.1930 1.3618 -25.6040 -1.3238 1.2332 -4.1266 -1.7781 0.4898 9.7133 1.1502 0.1708 -22.7667 11.5628 -3.9413 23.6431 3.4530 -0.2872 11.8484 -0.0000 -0.0000 0.0000 -75.4973 4.0237 59.8854 15.9466 -25.4481 -3.6230 -0.0000 0.0000 -39.5800 30.9114 7.9243 4.7190 -7.1250 0.0000 -0.0000 3.5402 39.1719 -0.5091 -0.0000 -0.0000 0.0000 83.5430 -5.0756 45.8044 -14.6291 23.6270 -3.0758 0.0000 -0.0000 -8.7142 -18.0409 -16.9860 5.4355 7.1250 -0.0000 -0.0000 9.4506 -47.5638 -0.6029
2.7995 15.7416 31.8529 -161.5330 -86.1274 179.2060 0.0000 0.0000 0.0000 0.0000 0.0000 0.0000 0.0000 0.0000 0.0000 0.0000 0.0000 0.0000 0.0000 0.0000 0.0000 0.0000 0.0000 0.0000 21.7936 27.5180 -18.7020 -1.8533 -8.5535 24.4083 -0.3115 -8.6478 -17.0227 -0.1030 -2.0694 5.6974 1.0232 1.3001 -25.6170 -1.2634 1.1968 -4.0707 -1.6248 0.4684 9.7765 0.9095 0.0502 -22.6864 12.0658 -4.1206 23.2212 3.6382 -0.3469 11.7047 0.0000 -0.0000 0.0000 -75.2156 4.0331 60.4188 16.1495 -25.7230 -3.7106 -0.0000 0.0000 -39.7486 30.2682 8.1117 4.7076 -7.1250 0.0000 -0.0000 2.9745 39.3341 -0.4157 0.0000 -0.0000 0.0000 83.1653 -5.3498 46.5309 -15.0072 24.1561 -3.2289 0.0000 -0.0000 -10.1199 -18.3850 -17.6551 5.7561 7.1250 -0.0000 -0.0000 9.3182 -48.2980 -0.7643
2.8012 15.7401 31.8517 -161.6400 -86.1645 179.2940 0.0000 0.0000 0.0000 0.0000 0.0000 0.0000 0.0000 0.0000 0.0000 0.0000 0.0000 0.0000 0.0000 0.0000 0.0000 0.0000 0.0000 0.0000 21.7849 27.5037 -18.7411 -1.8652 -8.5794 24.4882 -0.3128 -8.6625 -17.0535 -0.1040 -2.0794 5.7253 0.9057 1.2487 -25.6250 -1.2301 1.1605 -4.0404 -1.5318 0.4480 9.8102 0.6911 -0.1114 -22.5197 12.5697 -4.3608 22.7853 3.8072 -0.4380 11.5463 -0.0000 0.0000 0.0000 -74.6763 4.1575 61.2668 16.5497 -26.2603 -3.8860 -0.0000 0.0000 -40.3591 29.8327 8.3304 4.7495 -7.1250 0.0000 -0.0000 2.5873 39.5481 -0.3479 -0.0000 0.0000 0.0000 82.6641 -5.6764 47.0559 -15.4196 24.7273 -3.3995 0.0000 -0.0000 -11.1754 -18.4216 -18.0345 5.8873 7.1250 -0.0000 -0.0000 9.3955 -48.6918 -0.8625
2.8028 15.7389 31.8512 -161.8660 -86.1861 179.5040 0.0000 0.0000 0.0000 0.0000 0.0000 0.0000 0.0000 0.0000 0.0000 0.0000 0.0000 0.0000 0.0000 0.0000 0.0000 0.0000 0.0000 0.0000 21.7673 27.4964 -18.7808 -1.8779 -8.6071 24.5738 -0.3171 -8.6473 -17.0914 -0.1061 -2.1006 5.7836 0.7946 1.2258 -25.6397 -1.2104 1.1619 -4.0007 -1.4452 0.4462 9.8599 0.4755 -0.2809 -22.3891 13.0977 -4.6189 22.3411 3.9817 -0.5349 11.3978 0.0000 -0.0000 0.0000 -74.1763 4.2391 62.0599 16.9188 -26.7506 -4.0507 -0.0000 0.0000 -40.7662 29.4214 8.4915 4.7604 -7.1250 0.0000 -0.0000 2.2213 39.6966 -0.2905 0.0000 -0.0000 0.0000 82.2367 -5.9813 47.4545 -15.8169 25.2718 -3.5675 0.0000 -0.0000 -12.1794 -18.5619 -18.5078 6.0844 7.1250 -0.0000 -0.0000 9.4050 -49.1975 -0.9814
2.8043 15.7377 31.8507 -162.0160 -86.2028 179.6360 0.0000 0.0000 0.0000 0.0000 0.0000 0.0000 0.0000 0.0000 0.0000 0.0000 0.0000 0.0000 0.0000 0.0000 0.0000 0.0000 0.0000 0.0000 21.7596 27.4814 -18.8147 -1.8896 -8.6321 24.6512 -0.3213 -8.6268 -17.1223 -0.1078 -2.1168 5.8287 0.6819 1.2067 -25.6574 -1.1823 1.1679 -3.9590 -1.3467 0.4463 9.9133 0.2798 -0.4485 -22.2628 13.6199 -4.8799 21.9090 4.1503 -0.6335 11.2580 0.0000 -0.0000 0.0000 -73.6589 4.3389 62.8331 17.3354 -27.2977 -4.2400 -0.0000 0.0000 -41.1729 29.0036 8.5612 4.7179 -7.1250 0.0000 -0.0000 1.8519 39.7398 -0.2402 0.0000 -0.0000 0.0000 81.7650 -6.3110 47.8934 -16.2575 25.8686 -3.7576 0.0000 -0.0000 -13.1545 -18.6998 -18.9866 6.2842 7.1250 -0.0000 -0.0000 9.4218 -49.7088 -1.1025
2.8056 15.7363 31.8502 -162.0090 -86.2212 179.6130 0.0000 0.0000 0.0000 0.0000 0.0000 0.0000 0.0000 0.0000 0.0000 0.0000 0.0000 0.0000 0.0000 0.0000 0.0000 0.0000 0.0000 0.0000 21.7629 27.4565 -18.8487 -1.9003 -8.6553 24.7229 -0.3253 -8.6034 -17.1484 -0.1088 -2.1270 5.8567 0.5833 1.1984 -25.6768 -1.1504 1.1835 -3.9209 -1.2487 0.4512 9.9641 0.0580 -0.6215 -22.1474 14.1580 -5.1451 21.4975 4.3295 -0.7350 11.1330 -0.0000 -0.0000 0.0000 -73.1251 4.4623 63.5817 17.7977 -27.8974 -4.4542 -0.0000 0.0000 -41.5333 28.5865 8.5572 4.6354 -7.1250 0.0000 -0.0000 1.4863 39.6993 -0.1942 -0.0000 -0.0000 0.0000 81.2390 -6.6724 48.3278 -16.7448 26.5201 -3.9727 0.0000 -0.0000 -14.0371 -18.7788 -19.4365 6.4552 7.1250 -0.0000 -0.0000 9.4897 -50.1814 -1.2216
2.8063 15.7348 31.8499 -161.8750 -86.2359 179.4590 0.0000 0.0000 0.0000 0.0000 0.0000 0.0000 0.0000 0.0000 0.0000 0.0000 0.0000 0.0000 0.0000 0.0000 0.0000 0.0000 0.0000 0.0000 21.7791 27.4230 -18.8727 -1.9097 -8.6754 24.7851 -0.3296 -8.5722 -17.1685 -0.1092 -2.1310 5.8678 0.4916 1.1979 -25.6941 -1.1082 1.2063 -3.8849 -1.1408 0.4593 10.0114 -0.1979 -0.7980 -22.0485 14.7154 -5.4123 21.1163 4.5227 -0.8378 11.0275 -0.0000 0.0000 0.0000 -72.6038 4.6084 64.2473 18.2918 -28.5291 -4.6878 -0.0000 0.0000 -41.7923 28.1475 8.4838 4.5130 -7.1250 0.0000 -0.0000 1.1054 39.5791 -0.1477 -0.0000 0.0000 0.0000 80.6499 -7.0706 48.7878 -17.2919 27.2410 -4.2201 0.0000 -0.0000 -14.8510 -18.7370 -19.8673 6.5757 7.1250 -0.0000 -0.0000 9.6727 -50.6149 -1.3493
2.8063 15.7329 31.8494 -161.6150 -86.2482 179.1710 0.0000 0.0000 0.0000 0.0000 0.0000 0.0000 0.0000 0.0000 0.0000 0.0000 0.0000 0.0000 0.0000 0.0000 0.0000 0.0000 0.0000 0.0000 21.8096 27.3848 -18.8802 -1.9176 -8.6923 24.8375 -0.3334 -8.5421 -17.1845 -0.1089 -2.1274 5.8580 0.3989 1.1922 -25.7102 -1.0461 1.2207 -3.8464 -1.0129 0.4630 10.0600 -0.5002 -0.9783 -21.9750 15.2833 -5.6768 20.7736 4.7304 -0.9406 10.9456 0.0000 -0.0000 0.0000 -72.1202 4.7788 64.7643 18.8076 -29.1789 -4.9367 -0.0000 0.0000 -41.9248 27.6510 8.3515 4.3517 -7.1250 0.0000 -0.0000 0.6787 39.3890 -0.0938 0.0000 -0.0000 0.0000 79.9820 -7.4947 49.2911 -17.9059 28.0365 -4.5049 0.0000 -0.0000 -15.5799 -18.5724 -20.2768 6.6418 7.1250 -0.0000 -0.0000 9.9729 -51.0055 -1.4882
